<?xml version="1.0" encoding="UTF-8" standalone="no"?>
<!-- Created with Inkscape (http://www.inkscape.org/) -->

<svg
   width="200mm"
   height="200mm"
   viewBox="0 0 200 200"
   version="1.1"
   id="svg1"
   inkscape:version="1.4.2 (f4327f4, 2025-05-13)"
   sodipodi:docname="custom_ikona_1.svg"
   xml:space="preserve"
   xmlns:inkscape="http://www.inkscape.org/namespaces/inkscape"
   xmlns:sodipodi="http://sodipodi.sourceforge.net/DTD/sodipodi-0.dtd"
   xmlns="http://www.w3.org/2000/svg"
   xmlns:svg="http://www.w3.org/2000/svg"><sodipodi:namedview
     id="namedview1"
     pagecolor="#ffffff"
     bordercolor="#000000"
     borderopacity="0.25"
     inkscape:showpageshadow="2"
     inkscape:pageopacity="0.0"
     inkscape:pagecheckerboard="0"
     inkscape:deskcolor="#d1d1d1"
     inkscape:document-units="mm"
     inkscape:zoom="0.50835205"
     inkscape:cx="179.99337"
     inkscape:cy="309.82466"
     inkscape:window-width="1920"
     inkscape:window-height="1009"
     inkscape:window-x="-8"
     inkscape:window-y="-8"
     inkscape:window-maximized="1"
     inkscape:current-layer="layer1" /><defs
     id="defs1" /><g
     inkscape:label="Warstwa 1"
     inkscape:groupmode="layer"
     id="layer1"><circle
       style="fill:#460e2b;fill-opacity:1;stroke:#d53c6a;stroke-width:10;stroke-dasharray:none;stroke-opacity:1"
       id="circle2"
       cx="100"
       cy="100"
       r="95" /><circle
       style="fill:#460e2b;fill-opacity:1;stroke:#d53c6a;stroke-width:10;stroke-dasharray:none;stroke-opacity:1"
       id="path1"
       cx="100"
       cy="100"
       r="95" /><path
       style="opacity:1;fill:#d53c6a;fill-opacity:1;stroke:#7c183c;stroke-width:0;stroke-linecap:round;stroke-linejoin:round;stroke-dasharray:none"
       d="M 73.506157,177.42297 C 67.734524,143.26839 40.633898,116.96696 51.189212,72.263571 61.744522,27.56018 102.15628,29.39673 102.15628,29.39673 c 0,0 37.03898,-4.528259 42.769,35.917669 5.73002,40.445911 -24.6287,107.072661 -24.6287,107.072661 0,0 -3.75412,25.67454 11.74171,18.38548 5.14812,-2.42161 -51.913371,25.81803 -58.532133,-13.34957 z"
       id="path65"
       sodipodi:nodetypes="sscscss" /><path
       style="opacity:1;fill:#ff8274;fill-opacity:1;stroke:#7c183c;stroke-width:0;stroke-linecap:round;stroke-linejoin:round;stroke-dasharray:none"
       d="m 52.969218,115.19436 c 0,0 21.401352,-11.42438 52.973632,-7.82073 31.57231,3.60367 33.26744,6.59394 33.26744,6.59394 L 90.262672,156.3681 Z"
       id="path66" /><g
       id="g20"><path
         d="M 46.513957,98.457039 60.011841,76.509542 H 40.350509 l -0.548287,3.643188 c -1.141319,7.58162 1.585624,14.259761 6.711735,18.304309 z"
         style="stroke-width:0;stroke-linecap:round;stroke-linejoin:round"
         id="path15" /><path
         d="M 79.529513,76.509542 63.862252,101.98499 C 74.193591,99.737742 82.953408,90.84367 84.562797,80.15273 l 0.548287,-3.643188 z"
         style="stroke-width:0;stroke-linecap:round;stroke-linejoin:round"
         id="path12" /><path
         d="M 79.529513,76.509542 H 60.011841 L 46.513957,98.457039 c 3.25694,2.569761 7.482428,4.076241 12.299507,4.076241 1.70776,0 3.39847,-0.18932 5.048788,-0.54829 z"
         style="fill:#ececec;stroke-width:0;stroke-linecap:round;stroke-linejoin:round"
         id="path13" /><rect
         style="fill:#000000;stroke-width:0;stroke-linecap:round;stroke-linejoin:round"
         id="rect22"
         width="34.686802"
         height="5.2444234"
         x="80.442406"
         y="76.512863"
         ry="2.6222117" /></g><g
       id="g21"><path
         d="m 121.74554,98.222945 13.35371,-21.713403 h -25.98136 c 0.0774,0.430507 0.16744,0.864374 0.27078,1.301212 l 0.86196,3.643189 c 1.58236,6.689047 5.90372,12.674714 11.49491,16.769002 z"
         style="stroke-width:0;stroke-linecap:round;stroke-linejoin:round"
         id="path20" /><path
         d="m 154.05468,77.423698 -16.24242,26.410272 c 0.0378,1.9e-4 0.0754,5.2e-4 0.11317,5.2e-4 12.3987,0 20.01881,-9.981852 17.08578,-22.380547 l -0.86196,-3.643189 c -0.0306,-0.129252 -0.062,-0.258334 -0.0946,-0.387056 z"
         style="stroke-width:0;stroke-linecap:round;stroke-linejoin:round"
         id="path17" /><path
         d="m 154.05468,77.423698 c -0.0775,-0.306324 -0.16067,-0.611028 -0.2496,-0.914156 h -18.70583 l -13.35371,21.713403 c 4.74098,3.471695 10.39503,5.583245 16.06672,5.611025 z"
         style="fill:#ececec;stroke-width:0;stroke-linecap:round;stroke-linejoin:round"
         id="path18" /></g></g></svg>
