<?xml version="1.0" encoding="UTF-8" standalone="no"?>
<!-- Created with Inkscape (http://www.inkscape.org/) -->

<svg
   width="200mm"
   height="200mm"
   viewBox="0 0 200 200"
   version="1.1"
   id="svg1"
   inkscape:version="1.4.2 (f4327f4, 2025-05-13)"
   sodipodi:docname="domyslna ikona uzytkownika.svg"
   xml:space="preserve"
   xmlns:inkscape="http://www.inkscape.org/namespaces/inkscape"
   xmlns:sodipodi="http://sodipodi.sourceforge.net/DTD/sodipodi-0.dtd"
   xmlns="http://www.w3.org/2000/svg"
   xmlns:svg="http://www.w3.org/2000/svg"><sodipodi:namedview
     id="namedview1"
     pagecolor="#ffffff"
     bordercolor="#000000"
     borderopacity="0.25"
     inkscape:showpageshadow="2"
     inkscape:pageopacity="0.0"
     inkscape:pagecheckerboard="0"
     inkscape:deskcolor="#d1d1d1"
     inkscape:document-units="mm"
     inkscape:zoom="0.71891836"
     inkscape:cx="649.58697"
     inkscape:cy="370.69577"
     inkscape:window-width="1920"
     inkscape:window-height="1009"
     inkscape:window-x="-8"
     inkscape:window-y="-8"
     inkscape:window-maximized="1"
     inkscape:current-layer="layer1" /><defs
     id="defs1" /><g
     inkscape:label="Warstwa 1"
     inkscape:groupmode="layer"
     id="layer1"><circle
       style="fill:#460e2b;fill-opacity:1;stroke:#d53c6a;stroke-width:10;stroke-dasharray:none;stroke-opacity:1"
       id="path1"
       cx="100"
       cy="100"
       r="95" /><path
       style="opacity:1;fill:#d53c6a;fill-opacity:1;stroke:#7c183c;stroke-width:0;stroke-linecap:round;stroke-linejoin:round;stroke-dasharray:none"
       d="m 21.897769,147.64572 c 0,0 6.440521,-30.99304 27.050184,-43.27687 C 69.557619,92.085026 94.21561,106.25867 86.671001,91.896044 79.126391,77.533413 66.61338,65.060604 73.053902,45.217499 79.494421,25.374393 104.15241,26.189606 104.15241,26.189606 c 0,0 22.60002,-2.010019 26.0963,15.943268 3.49628,17.953283 -15.02766,47.527809 -15.02766,47.527809 0,0 -9.22849,13.196307 4.02058,9.79464 13.24907,-3.401677 34.22677,5.291497 41.95539,21.732927 7.72863,16.44143 12.88104,32.88285 12.88104,32.88285 0,0 -15.64126,37.41844 -58.51673,39.49724 -42.875458,2.0788 -45.451666,-2.0788 -45.451666,-2.0788 0,0 -39.195166,-18.33125 -45.451672,-35.71759 -6.256506,-17.38634 -2.760223,-8.12623 -2.760223,-8.12623 z"
       id="path65"
       sodipodi:nodetypes="cssscscsscscsc" /><path
       style="opacity:1;fill:#ff8274;fill-opacity:1;stroke:#7c183c;stroke-width:0;stroke-linecap:round;stroke-linejoin:round;stroke-dasharray:none"
       d="m 83.796094,69.209853 c 0,0 8.488881,-13.923912 21.012076,-9.531806 12.52321,4.39211 13.19559,8.036623 13.19559,8.036623 l -19.415157,51.67734 z"
       id="path66" /><ellipse
       style="opacity:1;fill:#7c183c;fill-opacity:1;stroke:#7c183c;stroke-width:0;stroke-linecap:round;stroke-linejoin:round;stroke-dasharray:none"
       id="path67"
       cx="123.26524"
       cy="49.912266"
       rx="4.7005186"
       ry="7.0914397" /><ellipse
       style="opacity:1;fill:#7c183c;fill-opacity:1;stroke:#7c183c;stroke-width:0;stroke-linecap:round;stroke-linejoin:round;stroke-dasharray:none"
       id="ellipse67"
       cx="79.837738"
       cy="50.096279"
       rx="4.7005186"
       ry="7.0914397" /></g></svg>
