<?xml version="1.0" encoding="UTF-8" standalone="no"?>
<!-- Created with Inkscape (http://www.inkscape.org/) -->

<svg
   width="200mm"
   height="200mm"
   viewBox="0 0 200 200"
   version="1.1"
   id="svg1"
   inkscape:version="1.4.2 (f4327f4, 2025-05-13)"
   sodipodi:docname="logo.svg"
   xmlns:inkscape="http://www.inkscape.org/namespaces/inkscape"
   xmlns:sodipodi="http://sodipodi.sourceforge.net/DTD/sodipodi-0.dtd"
   xmlns="http://www.w3.org/2000/svg"
   xmlns:svg="http://www.w3.org/2000/svg">
  <sodipodi:namedview
     id="namedview1"
     pagecolor="#ffffff"
     bordercolor="#000000"
     borderopacity="0.25"
     inkscape:showpageshadow="2"
     inkscape:pageopacity="0.0"
     inkscape:pagecheckerboard="0"
     inkscape:deskcolor="#d1d1d1"
     inkscape:document-units="mm"
     inkscape:zoom="1.0167041"
     inkscape:cx="419.98454"
     inkscape:cy="389.98565"
     inkscape:window-width="1920"
     inkscape:window-height="1009"
     inkscape:window-x="-8"
     inkscape:window-y="-8"
     inkscape:window-maximized="1"
     inkscape:current-layer="layer1" />
  <defs
     id="defs1" />
  <g
     inkscape:label="Warstwa 1"
     inkscape:groupmode="layer"
     id="layer1">
    <circle
       style="fill:#460e2b;stroke:#d53c6a;stroke-width:10;stroke-dasharray:none;stroke-opacity:1;fill-opacity:1"
       id="path1"
       cx="100"
       cy="100"
       r="95" />
    <path
       id="path23"
       style="fill:#ff8274;fill-opacity:1;stroke:none;stroke-width:9.88462;stroke-opacity:1"
       d="M 20.648434,57.607634 C 26.91231,69.564879 39.0128,75.372132 53.112007,75.372102 73.605757,75.372048 90.219209,59.64524 90.219267,40.245223 90.219318,29.651461 84.810974,19.948775 76.116321,13.2791 49.314604,17.401705 33.462183,33.023008 20.648434,57.607634 Z"
       sodipodi:nodetypes="csscc" />
    <path
       style="fill:#d53c6a;fill-opacity:1;stroke:#d53c6a;stroke-width:0;stroke-dasharray:none;stroke-opacity:1"
       d="M 134.0217,81.146852 133.50123,60.9262 c 0,0 -11.97087,-8.498533 -13.27205,-9.377692 -1.30118,-0.879157 -25.242929,1.465265 -26.283869,2.344426 -1.04094,0.879159 -5.985436,13.480431 -5.985436,13.480431 0,0 -7.546853,28.426134 -8.587798,30.770557 -1.040945,2.344418 -8.327562,34.287188 -8.327562,34.287188 l -12.491344,56.85225 25.503161,6.15412 16.394888,-2.05137 21.85985,-4.10275 -13.53229,-34.28719 4.16378,-29.30528 6.76615,-21.0998 z"
       id="path3" />
    <path
       style="fill:#d53c6a;fill-opacity:1;stroke:#d53c6a;stroke-width:0;stroke-dasharray:none;stroke-opacity:1"
       d="m 85.617749,86.106373 -39.295683,33.705837 -13.272053,41.98947 -1.040945,3.999 22.900796,16.56728 c 0,0 29.927176,10.28313 29.927176,8.28364 0,-1.9995 0.780709,-104.545227 0.780709,-104.545227 z"
       id="path4" />
    <ellipse
       style="fill:#460e2b;fill-opacity:1;stroke:#d53c6a;stroke-width:0;stroke-dasharray:none;stroke-opacity:1"
       id="path5"
       cx="105.92661"
       cy="70.937187"
       rx="4.1054392"
       ry="7.0264277"
       transform="matrix(1,0,-0.0036315,0.99999341,0,0)" />
    <path
       style="fill:#ff8274;fill-opacity:1;stroke:#d53c6a;stroke-width:0;stroke-dasharray:none;stroke-opacity:1"
       d="m 128.03627,70.96731 44.90258,33.40095 -59.02041,-3.04163 -2.40909,-11.678957 c 0,0 2.38667,-9.26545 3.77534,-10.396725 10.40945,-8.480004 12.75158,-8.283638 12.75158,-8.283638 z"
       id="path2"
       sodipodi:nodetypes="ccccsc" />
    <path
       style="fill:#7c183c;fill-opacity:1;stroke:#d53c6a;stroke-width:0;stroke-dasharray:none;stroke-opacity:1"
       d="m 75.975122,99.241351 c -1.917804,0.0526 -10.55447,16.822869 -10.55447,16.822869 l 14.487744,2.54007 2.895789,-7.25845 c 0,0 3.842061,-9.56864 3.499593,-9.55925 -0.342475,0.009 -10.328666,-2.545239 -10.328666,-2.545239 z"
       id="path20" />
    <path
       style="fill:#ff8274;fill-opacity:1;stroke:#d53c6a;stroke-width:0;stroke-dasharray:none;stroke-opacity:1"
       d="m 81.331346,90.212704 c -2.071255,0 -19.128835,13.172086 -19.128835,13.172086 l 14.273984,2.33978 6.48386,-5.71945 c 0,0 8.573804,-7.539293 8.203934,-7.539293 -0.369866,0 -9.832943,-2.253123 -9.832943,-2.253123 z"
       id="path6" />
    <path
       style="fill:#ff8274;fill-opacity:1;stroke:#d53c6a;stroke-width:0;stroke-dasharray:none;stroke-opacity:1"
       d="m 56.658728,106.51381 c -1.846922,0 -13.605019,14.96738 -13.605019,14.96738 l 13.341173,2.65867 4.282711,-6.49898 c 0,0 5.669373,-8.56686 5.339563,-8.56686 -0.329807,0 -9.358428,-2.56021 -9.358428,-2.56021 z"
       id="path8" />
    <path
       style="fill:#7c183c;fill-opacity:1;stroke:#d53c6a;stroke-width:0;stroke-dasharray:none;stroke-opacity:1"
       d="m 55.420281,134.94004 c -2.947579,0.0808 -16.221748,25.85601 -16.221748,25.85601 l 22.267015,3.90397 4.450698,-11.15591 c 0,0 5.905076,-14.70657 5.378719,-14.69215 -0.526369,0.0144 -15.874698,-3.91192 -15.874698,-3.91192 z"
       id="path19" />
    <path
       style="fill:#ff8274;fill-opacity:1;stroke:#d53c6a;stroke-width:0;stroke-dasharray:none;stroke-opacity:1"
       d="m 43.153643,128.63549 c -0.448908,1.99652 -13.79485,36.74615 -13.79485,36.74615 l 19.381643,-8.2979 4.106249,-29.89658 z"
       id="path9" />
    <path
       style="fill:#ff8274;fill-opacity:1;stroke:#d53c6a;stroke-width:0;stroke-dasharray:none;stroke-opacity:1"
       d="m 60.4913,122.02917 c -1.326141,0.31061 -7.449202,17.25547 -7.449202,17.25547 l 9.991353,0.41495 2.067923,-7.21924 c 0,0 2.743115,-9.52033 2.5063,-9.46487 -0.236804,0.0555 -7.116374,-0.98631 -7.116374,-0.98631 z"
       id="path10" />
    <path
       style="fill:#ff8274;fill-opacity:1;stroke:#d53c6a;stroke-width:0;stroke-dasharray:none;stroke-opacity:1"
       d="m 80.366618,108.20725 c -1.90157,0 -10.96816,13.17209 -10.96816,13.17209 l 14.275832,2.33978 3.089682,-5.71945 c 0,0 4.097457,-7.53929 3.757887,-7.53929 -0.33957,0 -10.155241,-2.25313 -10.155241,-2.25313 z"
       id="path11" />
    <path
       style="fill:#7c183c;fill-opacity:1;stroke:#d53c6a;stroke-width:0;stroke-dasharray:none;stroke-opacity:1"
       d="m 108.61945,109.73295 c 1.00988,0.4765 3.70841,19.82411 3.70841,19.82411 l -7.9575,-0.54344 -0.72184,-8.18873 c 0,0 -0.96462,-10.80041 -0.78428,-10.71532 0.18038,0.0847 5.75522,-0.37661 5.75522,-0.37661 z"
       id="path21" />
    <path
       style="fill:#ff8274;fill-opacity:1;stroke:#d53c6a;stroke-width:0;stroke-dasharray:none;stroke-opacity:1"
       d="m 117.88308,111.18419 c 0.99272,0.89674 -1.86441,18.64672 -1.86441,18.64672 l -8.80101,-4.33888 1.68283,-7.30771 c 0,0 2.20539,-9.64456 2.38267,-9.48443 0.17725,0.16016 6.59992,2.4843 6.59992,2.4843 z"
       id="path12" />
    <path
       style="fill:#7c183c;fill-opacity:1;stroke:#d53c6a;stroke-width:0;stroke-dasharray:none;stroke-opacity:1"
       d="m 102.19781,132.16877 c 2.40908,1.10046 5.47835,29.88274 5.47835,29.88274 l -19.581007,-4.08075 -0.259512,-12.00734 c 0,0 -0.373343,-15.84214 0.05685,-15.64563 0.430205,0.19652 14.305329,1.85098 14.305329,1.85098 z"
       id="path18" />
    <path
       style="fill:#ff8274;fill-opacity:1;stroke:#d53c6a;stroke-width:0;stroke-dasharray:none;stroke-opacity:1"
       d="m 111.00937,149.12873 c 1.91069,0.72091 7.74619,27.53822 7.74619,27.53822 l -14.92604,-1.25934 -1.68264,-11.32315 c 0,0 -2.242842,-14.93536 -1.90165,-14.80665 0.34119,0.12884 10.76414,-0.14914 10.76414,-0.14914 z"
       id="path13" />
    <path
       style="fill:#ff8274;fill-opacity:1;stroke:#d53c6a;stroke-width:0;stroke-dasharray:none;stroke-opacity:1"
       d="m 103.12056,124.17073 c 2.16515,0.87702 4.92364,18.00718 4.92364,18.00718 l -17.598348,-4.28395 -0.233235,-7.0474 c 0,0 -0.33554,-9.30114 0.05109,-9.14453 0.386645,0.15662 12.856853,2.4687 12.856853,2.4687 z"
       id="path14" />
    <path
       style="fill:#7c183c;fill-opacity:1;stroke:#d53c6a;stroke-width:0;stroke-dasharray:none;stroke-opacity:1"
       d="m 85.227258,155.75556 c 2.798923,1.10046 1.443273,29.88274 1.443273,29.88274 l -23.623924,-4.08075 1.835504,-12.00734 c 0,0 2.38321,-15.84214 2.883022,-15.64563 0.499821,0.19652 17.46214,1.85098 17.46214,1.85098 z"
       id="path22" />
    <path
       style="fill:#ff8274;fill-opacity:1;stroke:#d53c6a;stroke-width:0;stroke-dasharray:none;stroke-opacity:1"
       d="m 58.71451,151.25033 c -2.794822,0.74895 -16.120394,23.67954 -16.120394,23.67954 l 20.981827,-2.18381 4.541043,-9.62304 c 0,0 6.022216,-12.69466 5.523134,-12.56091 -0.499081,0.13374 -14.92561,0.68822 -14.92561,0.68822 z"
       id="path15" />
    <path
       style="fill:#ff8274;fill-opacity:1;stroke:#d53c6a;stroke-width:0;stroke-dasharray:none;stroke-opacity:1"
       d="m 84.465265,132.47359 c 1.91069,0.48247 7.74619,18.42997 7.74619,18.42997 l -14.92604,-0.84282 -1.68264,-7.57802 c 0,0 -2.242842,-9.9955 -1.90165,-9.90936 0.34119,0.0862 10.76414,-0.0998 10.76414,-0.0998 z"
       id="path16" />
    <path
       style="fill:#ff8274;fill-opacity:1;stroke:#d53c6a;stroke-width:0;stroke-dasharray:none;stroke-opacity:1"
       d="m 96.268347,173.72405 c 2.507878,0.84268 10.167273,19.8903 10.167273,19.8903 l -19.591195,-3.65672 -2.208551,-7.89524 c 0,0 -2.943846,-10.41832 -2.496013,-10.26786 0.447829,0.15052 14.128486,1.92949 14.128486,1.92949 z"
       id="path17" />
  </g>
</svg>
