<?xml version="1.0" encoding="UTF-8" standalone="no"?>
<!-- Created with Inkscape (http://www.inkscape.org/) -->

<svg
   width="400mm"
   height="400mm"
   viewBox="0 0 400 400"
   version="1.1"
   id="svg1"
   inkscape:version="1.4.2 (f4327f4, 2025-05-13)"
   sodipodi:docname="obrazek na srodek.svg"
   xmlns:inkscape="http://www.inkscape.org/namespaces/inkscape"
   xmlns:sodipodi="http://sodipodi.sourceforge.net/DTD/sodipodi-0.dtd"
   xmlns="http://www.w3.org/2000/svg"
   xmlns:svg="http://www.w3.org/2000/svg">
  <sodipodi:namedview
     id="namedview1"
     pagecolor="#ffffff"
     bordercolor="#000000"
     borderopacity="0.25"
     inkscape:showpageshadow="2"
     inkscape:pageopacity="0.0"
     inkscape:pagecheckerboard="0"
     inkscape:deskcolor="#d1d1d1"
     inkscape:document-units="mm"
     inkscape:zoom="0.35945918"
     inkscape:cx="472.9327"
     inkscape:cy="527.18087"
     inkscape:window-width="1920"
     inkscape:window-height="1009"
     inkscape:window-x="-8"
     inkscape:window-y="-8"
     inkscape:window-maximized="1"
     inkscape:current-layer="layer1" />
  <defs
     id="defs1" />
  <g
     inkscape:label="Warstwa 1"
     inkscape:groupmode="layer"
     id="layer1">
    <path
       id="rect3"
       style="fill:#460e2b;fill-opacity:1;stroke:#7c183c;stroke-width:4.02199;stroke-linecap:round;stroke-linejoin:round;stroke-dasharray:none;stroke-opacity:1;paint-order:normal"
       d="m 62.477054,17.707073 v 68.029068 c -0.866622,7.04533 -1.771771,14.512629 -2.527549,20.989219 -2.232878,19.13453 -45.365238,47.32403 -45.365238,47.32403 0,0 5.73161,12.10354 53.738494,-9.23882 28.726807,-12.77104 43.195519,-16.71406 50.183629,-17.82142 H 240.36433 V 17.707073 Z" />
    <path
       id="rect4"
       style="fill:#460e2b;fill-opacity:1;stroke:#7c183c;stroke-width:3.87803;stroke-linecap:round;stroke-linejoin:round;stroke-dasharray:none;stroke-opacity:1;paint-order:normal"
       d="m 123.83005,150.77277 v 85.47902 h 156.33413 c 7.04669,1.18776 21.34718,5.21497 49.25746,17.76378 47.47583,21.34572 53.14404,9.24026 53.14404,9.24026 0,0 -42.65523,-28.19393 -44.86341,-47.33148 -0.7297,-6.32411 -1.60023,-13.59252 -2.43861,-20.49074 v -44.66084 z" />
    <path
       id="rect5"
       style="fill:#460e2b;fill-opacity:1;stroke:#7c183c;stroke-width:3.51912;stroke-linecap:round;stroke-linejoin:round;stroke-dasharray:none;stroke-opacity:1;paint-order:normal"
       d="m 240.61593,265.61742 v 85.89076 h -112.5606 c -8.46667,1.48589 -24.46623,5.76953 -53.811368,17.45279 -53.521448,21.30864 -59.911465,9.22421 -59.911465,9.22421 0,0 48.086989,-28.14495 50.576361,-47.24925 0.731238,-5.61173 1.58769,-11.9684 2.432813,-18.14818 v -47.17033 z" />
    <path
       style="fill:#460e2b;fill-opacity:1;stroke:#7c183c;stroke-width:3.33933;stroke-linecap:round;stroke-linejoin:round;stroke-dasharray:none;stroke-opacity:1;paint-order:normal"
       d="m 83.717503,39.649397 c 0,0 -7.821055,22.208315 3.910527,24.139476 11.731582,1.931155 19.88172,-4.780045 16.13092,-8.110866 -27.618095,-24.525705 25.90724,6.372822 27.86251,-0.772462 1.95525,-7.145285 -13.24058,-17.624238 -3.42173,-13.904336 44.69237,16.931828 12.95363,28.581135 17.59738,20.08404 4.64376,-8.497093 6.11019,3.089854 9.53191,0.96558 3.4217,-2.124274 -2.44409,-18.539116 2.68847,-19.69781 5.13258,-1.158695 9.28752,14.290567 16.86416,14.097451 7.57665,-0.193115 21.99671,-19.697809 29.81777,-11.200715 7.82105,8.497095 18.81941,17.187306 21.01907,15.449263"
       id="path6"
       sodipodi:nodetypes="csssssssssc" />
    <path
       style="fill:#460e2b;fill-opacity:1;stroke:#7c183c;stroke-width:3.28802;stroke-linecap:round;stroke-linejoin:round;stroke-dasharray:none;stroke-opacity:1;paint-order:normal"
       d="m 96.614318,39.626172 c -0.946024,-4.450089 -5.91266,-7.255582 -3.074581,-7.739286 2.838075,-0.483705 14.072133,2.515268 14.072133,2.515268"
       id="path7" />
    <path
       style="fill:#460e2b;fill-opacity:1;stroke:#7c183c;stroke-width:3.28802;stroke-linecap:round;stroke-linejoin:round;stroke-dasharray:none;stroke-opacity:1;paint-order:normal"
       d="m 160.70755,35.659788 c 8.396,2.708751 11.82533,4.353348 14.4269,2.128303"
       id="path8" />
    <path
       style="fill:#460e2b;fill-opacity:1;stroke:#7c183c;stroke-width:3.3502;stroke-linecap:round;stroke-linejoin:round;stroke-dasharray:none;stroke-opacity:1;paint-order:normal"
       d="m 86.048058,86.135433 c 3.104716,-0.298381 5.015309,19.494257 16.717692,14.222857 11.70237,-5.271419 5.13471,-27.351638 20.65828,-18.201278 15.52359,9.150362 -11.58297,12.333103 1.07472,15.018536 12.65767,2.685436 42.86894,-26.655407 43.70483,-14.322312 0.83587,12.333097 -22.5689,10.542806 -14.56828,13.228246 8.00061,2.68543 50.98895,-4.475723 36.06245,-7.161155 -14.92651,-2.685433 -16.35946,-3.7795 -14.92651,-6.266011 1.43293,-2.486512 25.91242,-3.580577 28.30066,-3.481115 2.38824,0.09946 0.35823,20.986159 6.09001,20.787237 5.73178,-0.198924 10.26945,-9.050905 10.26945,-9.050905"
       id="path9" />
    <path
       style="fill:#460e2b;fill-opacity:1;stroke:#7c183c;stroke-width:3.17896;stroke-linecap:round;stroke-linejoin:round;stroke-dasharray:none;stroke-opacity:1;paint-order:normal"
       d="m 269.86609,179.71173 c -2.78762,0.29922 -4.50307,-19.54893 -15.01025,-14.26275 -10.50716,5.2862 -4.61028,27.42836 -18.54836,18.25233 -13.93811,-9.17603 10.39995,-12.3677 -0.96496,-15.06066 -11.36489,-2.69298 -38.49057,26.73017 -39.24108,14.36248 -0.7505,-12.36769 20.26385,-10.57237 13.08036,-13.26535 -7.18348,-2.69296 -45.78125,4.48828 -32.37925,7.18124 13.40201,2.69297 14.6886,3.79011 13.40201,6.28359 -1.28658,2.49349 -23.26589,3.59062 -25.4102,3.49088 -2.14432,-0.0997 -0.32164,-21.04503 -5.46802,-20.84555 -5.14637,0.19949 -9.22059,9.0763 -9.22059,9.0763"
       id="path9-2" />
    <path
       style="fill:#460e2b;fill-opacity:1;stroke:#7c183c;stroke-width:3.3502;stroke-linecap:round;stroke-linejoin:round;stroke-dasharray:none;stroke-opacity:1;paint-order:normal"
       d="m 220.86429,76.686689 c 1.07473,6.365469 -2.26882,7.459535 1.07473,6.365469"
       id="path10" />
    <path
       style="fill:#460e2b;fill-opacity:1;stroke:#7c183c;stroke-width:3.3502;stroke-linecap:round;stroke-linejoin:round;stroke-dasharray:none;stroke-opacity:1;paint-order:normal"
       d="m 88.512575,77.128067 c 2.364238,1.828559 8.950329,1.828559 8.950329,1.828559"
       id="path11" />
    <path
       style="fill:#460e2b;fill-opacity:1;stroke:#7c183c;stroke-width:3.08868;stroke-linecap:round;stroke-linejoin:round;stroke-dasharray:none;stroke-opacity:1;paint-order:normal"
       d="m 269.05546,223.42285 c 0,0 6.65213,-22.33813 -3.32607,-24.28058 -9.9782,-1.94245 -16.91024,4.80798 -13.72003,8.15828 23.49035,24.66906 -22.03519,-6.41008 -23.69822,0.77697 -1.66303,7.18705 11.26166,17.72726 2.91032,13.98562 -38.01273,-17.03081 -11.0176,-28.7482 -14.96731,-20.20144 -3.94971,8.54675 -5.19697,-3.10792 -8.10729,-0.97123 -2.91029,2.1367 2.0788,18.64748 -2.28665,19.81295 -4.36548,1.16547 -7.89943,-14.3741 -14.34367,-14.17985 -6.44427,0.19424 -18.70913,19.81294 -25.36126,11.26618 -6.65213,-8.54676 -16.0067,-17.28777 -17.8776,-15.53957"
       id="path12"
       sodipodi:nodetypes="csssssssssc" />
    <path
       style="fill:#460e2b;fill-opacity:1;stroke:#7c183c;stroke-width:3.23254;stroke-linecap:round;stroke-linejoin:round;stroke-dasharray:none;stroke-opacity:1;paint-order:normal"
       d="m 172.22573,209.41897 c 3.80357,-1.91598 7.56251,-6.75722 7.56251,-6.75722"
       id="path14" />
    <path
       style="fill:#460e2b;fill-opacity:1;stroke:#7c183c;stroke-width:3.41068;stroke-linecap:round;stroke-linejoin:round;stroke-dasharray:none;stroke-opacity:1;paint-order:normal"
       d="m 81.620842,321.62661 c 0,0 -8.162266,-22.19907 4.081132,-24.12944 12.24341,-1.93034 20.749126,4.77806 16.834696,8.1075 -28.823027,24.51549 27.0375,-6.37018 29.07807,0.77214 2.04057,7.1423 -13.81822,17.61689 -3.571,13.89854 46.64221,-16.92477 13.51877,-28.56923 18.36512,-20.07568 4.84635,8.49355 6.37675,-3.08856 9.94777,-0.96518 3.57097,2.12339 -2.55073,18.5314 2.80576,19.68961 5.35651,1.1582 9.69272,-14.28461 17.5999,-14.09159 7.90721,0.19305 22.95638,19.68961 31.11866,11.19606 8.16227,-8.49355 19.64048,-17.18014 21.93609,-15.44282"
       id="path15"
       sodipodi:nodetypes="csssssssssc" />
    <path
       style="fill:#460e2b;fill-opacity:1;stroke:#7c183c;stroke-width:3.6005;stroke-linecap:round;stroke-linejoin:round;stroke-dasharray:none;stroke-opacity:1;paint-order:normal"
       d="m 180.37167,296.97752 c -1.14492,-4.40917 -7.15572,-7.18886 -3.72097,-7.66811 3.43473,-0.47925 17.03062,2.49214 17.03062,2.49214"
       id="path16" />
  </g>
</svg>
