<?xml version="1.0" encoding="UTF-8" standalone="no"?>
<!-- Created with Inkscape (http://www.inkscape.org/) -->

<svg
   width="200mm"
   height="200mm"
   viewBox="0 0 200 200"
   version="1.1"
   id="svg1"
   inkscape:version="1.4.2 (f4327f4, 2025-05-13)"
   sodipodi:docname="przycisk wysylania wiadomosci.svg"
   xml:space="preserve"
   xmlns:inkscape="http://www.inkscape.org/namespaces/inkscape"
   xmlns:sodipodi="http://sodipodi.sourceforge.net/DTD/sodipodi-0.dtd"
   xmlns="http://www.w3.org/2000/svg"
   xmlns:svg="http://www.w3.org/2000/svg"><sodipodi:namedview
     id="namedview1"
     pagecolor="#ffffff"
     bordercolor="#000000"
     borderopacity="0.25"
     inkscape:showpageshadow="2"
     inkscape:pageopacity="0.0"
     inkscape:pagecheckerboard="0"
     inkscape:deskcolor="#d1d1d1"
     inkscape:document-units="mm"
     inkscape:zoom="0.71891836"
     inkscape:cx="656.54186"
     inkscape:cy="323.40251"
     inkscape:window-width="1920"
     inkscape:window-height="1009"
     inkscape:window-x="-8"
     inkscape:window-y="-8"
     inkscape:window-maximized="1"
     inkscape:current-layer="layer1" /><defs
     id="defs1" /><g
     inkscape:label="Warstwa 1"
     inkscape:groupmode="layer"
     id="layer1"><circle
       style="fill:#460e2b;fill-opacity:1;stroke:#d53c6a;stroke-width:10;stroke-dasharray:none;stroke-opacity:1"
       id="path1"
       cx="100"
       cy="100"
       r="95" /><path
       style="fill:#ff8274;fill-opacity:1;stroke:#d53c6a;stroke-width:0;stroke-dasharray:none;stroke-opacity:1"
       d="m 96.005141,47.532023 23.470039,-45.4893337 -2.5744,48.2248667 -9.27047,4.928993 c 0,0 -6.67926,0.63146 -7.32232,-0.12856 -4.820419,-5.697146 -4.302849,-7.535966 -4.302849,-7.535966 z"
       id="path2"
       sodipodi:nodetypes="ccccsc" /><path
       style="fill:#d53c6a;fill-opacity:1;stroke:#7c183c;stroke-width:0;stroke-linecap:round;stroke-linejoin:round;stroke-dasharray:none"
       d="M 116.66542,62.197024 132.4907,79.126391"
       id="path4" /><path
       style="opacity:1;fill:#d53c6a;fill-opacity:1;stroke:#7c183c;stroke-width:0;stroke-linecap:round;stroke-linejoin:round;stroke-dasharray:none"
       d="m 87.829757,71.174633 6.44085,-7.742031 c 0,0 3.51319,-9.303448 3.903543,-9.888979 0.390356,-0.585534 3.90355,-10.214277 3.90355,-10.214277 l 11.84075,0.71565 c 0,0 -3.1879,16.655124 -3.51319,16.980421 -0.3253,0.325295 -0.65059,9.693802 -0.65059,10.214274 0,0.520473 11.64557,-2.212009 11.64557,-2.212009 l 19.73916,-11.431029 54.65242,-8.464685 -4.60038,17.113382 c 0,0 -11.59293,14.169147 -16.74535,18.217473 -5.15241,4.048326 -18.21747,12.328995 -20.60966,13.617101 -2.3922,1.288103 -16.56134,11.040886 -18.95353,12.144976 -2.3922,1.10409 -19.87361,8.6487 -19.87361,8.6487 l -9.01673,-0.18401 -4.9684,-8.09666 c 0,0 5.86791,-15.346437 5.41249,-15.151262 -0.45541,0.195178 -4.35895,4.944492 -4.61919,5.204732 -0.26024,0.26023 -3.773427,11.51545 -4.098724,12.03593 -0.325295,0.52047 -5.59508,8.78297 -6.115553,9.43356 -0.520472,0.65059 -3.448132,2.34213 -3.968604,2.34213 -0.520473,0 -1.36624,4.22884 -1.36624,4.22884 0,0 0.195178,8.06733 0.260237,8.32756 0.06506,0.26024 -0.845768,10.0191 -1.106004,10.3444 -0.260239,0.32529 -3.51319,18.80207 -3.252954,18.41171 0.260236,-0.39035 -5.269785,3.83849 -5.269785,3.83849 0,0 -4.489077,0.78071 -5.074611,0.78071 -0.585531,0 -2.732479,0 -2.732479,0 l -1.366242,-2.73248 -3.383071,2.47224 -5.59508,-1.106 -3.773427,-3.64331 -0.06506,-0.97589 6.831203,-15.02864 7.1565,-13.07688 6.180611,-8.5878 0.975887,-3.18789 -1.431298,-2.21201 -0.910828,-4.2939 0.325294,-5.59508 1.691537,-6.44085 1.561418,-6.115553 -1.36624,-4.554136 -3.838485,16.134649 -9.108273,5.20473 L 49.684013,112.24907 33.674719,98.815981 16.745353,80.414497 7.7286243,66.98141 7.3605945,52.996282 12.144981,38.091078 27.60223,45.451672 46.003715,50.052043 61.644979,54.100369 H 66.61338 L 79.310406,66.24535 Z"
       id="path24" /><ellipse
       style="opacity:1;fill:#d53c6a;fill-opacity:1;stroke:#7c183c;stroke-width:0;stroke-linecap:round;stroke-linejoin:round;stroke-dasharray:none"
       id="path25"
       cx="115.50249"
       cy="99.781738"
       rx="13.277791"
       ry="15.54912"
       transform="matrix(0.91137059,-0.41158674,0,1,0,0)" /><path
       style="fill:#7c183c;fill-opacity:1;stroke:#d53c6a;stroke-width:0;stroke-dasharray:none;stroke-opacity:1"
       d="M 67.558823,61.767151 C 64.426609,59.91863 0.90746495,42.133626 0.90746495,42.133626 L 15.792271,54.417695 41.977553,61.316636 c 0,0 34.55769,9.118059 33.998337,8.787955 -0.559334,-0.330095 -8.417067,-8.33744 -8.417067,-8.33744 z"
       id="path48" /><path
       style="fill:#7c183c;fill-opacity:1;stroke:#d53c6a;stroke-width:0;stroke-dasharray:none;stroke-opacity:1"
       d="M 61.164106,69.983249 C 58.40677,68.554984 0.70034817,55.244185 0.70034817,55.244185 L 13.48574,64.812048 37.314098,69.955463 c 0,0 31.445926,6.798495 30.953527,6.543439 -0.492391,-0.255048 -7.103519,-6.515653 -7.103519,-6.515653 z"
       id="path49" /><path
       style="fill:#7c183c;fill-opacity:1;stroke:#d53c6a;stroke-width:0;stroke-dasharray:none;stroke-opacity:1"
       d="M 60.862509,79.222201 C 58.316338,77.977433 7.2138638,71.039142 7.2138638,71.039142 l 12.1942712,9.166785 21.054915,2.458156 c 0,0 27.787318,3.256447 27.332619,3.034159 -0.45468,-0.222277 -6.93316,-6.476041 -6.93316,-6.476041 z"
       id="path50" /><path
       style="fill:#7c183c;fill-opacity:1;stroke:#d53c6a;stroke-width:0;stroke-dasharray:none;stroke-opacity:1"
       d="m 70.498225,89.18216 c -2.511082,-0.84591 -49.314109,0.759524 -49.314109,0.759524 l 12.664825,7.35224 19.20368,-1.07393 c 0,0 25.346616,-1.404672 24.898192,-1.555732 -0.448415,-0.151045 -7.452588,-5.482102 -7.452588,-5.482102 z"
       id="path51" /><path
       style="fill:#7c183c;fill-opacity:1;stroke:#d53c6a;stroke-width:0;stroke-dasharray:none;stroke-opacity:1"
       d="m 73.604277,98.598149 c -2.141749,-0.29832 -38.51324,6.083551 -38.51324,6.083551 l 11.432212,3.62595 14.838754,-2.90399 c 0,0 19.588006,-3.8241 19.205549,-3.87736 -0.382461,-0.0533 -6.963275,-2.928151 -6.963275,-2.928151 z"
       id="path52" /><path
       style="fill:#7c183c;fill-opacity:1;stroke:#d53c6a;stroke-width:0;stroke-dasharray:none;stroke-opacity:1"
       d="m 75.401118,104.53794 c -1.758934,0.19046 -24.791567,13.73752 -24.791567,13.73752 l 10.603441,0.81518 9.21743,-5.79741 c 0,0 12.17309,-7.64454 11.858998,-7.61052 -0.314095,0.034 -6.888302,-1.14477 -6.888302,-1.14477 z"
       id="path53" /><path
       style="fill:#ff8274;fill-opacity:1;stroke:#d53c6a;stroke-width:0;stroke-dasharray:none;stroke-opacity:1"
       d="M 72.113072,54.034808 C 69.262729,51.896084 4.7680199,33.021615 4.7680199,33.021615 L 17.124551,47.536611 43.859005,54.77933 c 0,0 35.277946,9.574986 34.768943,9.19306 -0.509007,-0.381917 -6.514876,-9.937582 -6.514876,-9.937582 z"
       id="path8" /><path
       style="fill:#ff8274;fill-opacity:1;stroke:#d53c6a;stroke-width:0;stroke-dasharray:none;stroke-opacity:1"
       d="M 59.407772,64.708011 C 56.918943,63.297318 0.60423878,50.847803 0.60423878,50.847803 l 10.78932522,9.574026 23.343665,4.777265 c 0,0 30.803568,6.315618 30.359123,6.063701 -0.444449,-0.25191 -5.68858,-6.554784 -5.68858,-6.554784 z"
       id="path26" /><path
       style="fill:#ff8274;fill-opacity:1;stroke:#d53c6a;stroke-width:0;stroke-dasharray:none;stroke-opacity:1"
       d="M 58.752765,74.980628 C 56.378844,73.950913 4.3431645,68.862985 4.3431645,68.862985 l 10.5894255,7.69885 21.536861,1.750511 c 0,0 28.420374,2.320851 27.996449,2.136968 -0.423929,-0.183876 -5.713135,-5.468686 -5.713135,-5.468686 z"
       id="path27" /><path
       style="fill:#ff8274;fill-opacity:1;stroke:#d53c6a;stroke-width:0;stroke-dasharray:none;stroke-opacity:1"
       d="m 62.354492,84.890909 c -2.174801,-0.716337 -47.263415,0.873126 -47.263415,0.873126 l 10.15992,6.266888 18.609083,-1.009273 c 0,0 24.558434,-1.321121 24.170067,-1.449042 -0.388369,-0.127914 -5.675655,-4.681699 -5.675655,-4.681699 z"
       id="path28" /><path
       style="fill:#ff8274;fill-opacity:1;stroke:#d53c6a;stroke-width:0;stroke-dasharray:none;stroke-opacity:1"
       d="M 65.143381,95.497743 C 63.40996,94.913708 28.743566,99.196869 28.743566,99.196869 l 8.323794,5.640071 14.280279,-2.11997 c 0,0 18.846543,-2.786931 18.536996,-2.891221 -0.309549,-0.10429 -4.741254,-4.328006 -4.741254,-4.328006 z"
       id="path29" /><path
       style="fill:#ff8274;fill-opacity:1;stroke:#d53c6a;stroke-width:0;stroke-dasharray:none;stroke-opacity:1"
       d="m 70.134774,104.13715 c -1.353429,-0.36018 -25.718704,8.16977 -25.718704,8.16977 l 6.978996,4.52417 9.976713,-3.86423 c 0,0 13.168717,-5.0891 12.927028,-5.15341 -0.24169,-0.0643 -4.164033,-3.6763 -4.164033,-3.6763 z"
       id="path30" /><path
       style="fill:#7c183c;fill-opacity:1;stroke:#d53c6a;stroke-width:0;stroke-dasharray:none;stroke-opacity:1"
       d="m 127.62548,61.754126 c 3.4059,-1.455891 70.0389,-11.423406 70.0389,-11.423406 l -16.61822,10.392502 -27.41542,3.679421 c 0,0 -36.18279,4.869043 -35.57457,4.609055 0.60821,-0.259981 9.56931,-7.257572 9.56931,-7.257572 z"
       id="path42" /><path
       style="fill:#7c183c;fill-opacity:1;stroke:#d53c6a;stroke-width:0;stroke-dasharray:none;stroke-opacity:1"
       d="m 133.0962,70.683699 c 2.97366,-1.084089 63.15694,-7.31371 63.15694,-7.31371 L 182.10047,71.320308 157.293,73.54233 c 0,0 -32.73938,2.943096 -32.20835,2.749502 0.53102,-0.193586 8.01155,-5.608133 8.01155,-5.608133 z"
       id="path43" /><path
       style="fill:#7c183c;fill-opacity:1;stroke:#d53c6a;stroke-width:0;stroke-dasharray:none;stroke-opacity:1"
       d="m 132.25959,79.891248 c 2.73677,-0.927494 55.43296,-1.630618 55.43296,-1.630618 l -13.50344,7.623722 -21.66202,-0.107873 c 0,0 -28.59007,-0.130173 -28.10134,-0.295802 0.48872,-0.16562 7.83384,-5.589429 7.83384,-5.589429 z"
       id="path44" /><path
       style="fill:#7c183c;fill-opacity:1;stroke:#d53c6a;stroke-width:0;stroke-dasharray:none;stroke-opacity:1"
       d="m 122.01304,91.829034 c 2.60459,-0.724553 50.29927,3.122843 50.29927,3.122843 l -13.28759,6.736613 -19.54919,-1.993346 c 0,0 -25.80328,-2.618212 -25.33816,-2.747601 0.46511,-0.129373 7.87567,-5.118509 7.87567,-5.118509 z"
       id="path45" /><path
       style="fill:#7c183c;fill-opacity:1;stroke:#d53c6a;stroke-width:0;stroke-dasharray:none;stroke-opacity:1"
       d="m 110.85064,102.8353 c 2.1917,-0.27615 39.29053,6.48156 39.29053,6.48156 l -11.72035,3.50751 -15.13232,-3.0573 c 0,0 -19.97562,-4.02649 -19.58425,-4.0758 0.39138,-0.0493 7.14639,-2.85597 7.14639,-2.85597 z"
       id="path46" /><path
       style="fill:#7c183c;fill-opacity:1;stroke:#d53c6a;stroke-width:0;stroke-dasharray:none;stroke-opacity:1"
       d="m 105.29037,110.40733 c 1.78361,-0.28946 28.17626,6.56606 28.17626,6.56606 l -10.21276,3.63607 -10.66539,-3.10568 c 0,0 -14.082085,-4.09011 -13.763585,-4.1418 0.318511,-0.0517 6.465475,-2.95465 6.465475,-2.95465 z"
       id="path47" /><path
       style="fill:#ff8274;fill-opacity:1;stroke:#d53c6a;stroke-width:0;stroke-dasharray:none;stroke-opacity:1"
       d="m 138.42684,57.155908 c 3.29437,-1.400522 67.74529,-10.988967 67.74529,-10.988967 l -16.07401,9.997269 -26.51763,3.539491 c 0,0 -34.99789,4.68387 -34.40958,4.43377 0.58829,-0.250094 9.25593,-6.981563 9.25593,-6.981563 z"
       id="path31" /><path
       style="fill:#ff8274;fill-opacity:1;stroke:#d53c6a;stroke-width:0;stroke-dasharray:none;stroke-opacity:1"
       d="m 143.71841,65.745884 c 2.87628,-1.04286 61.0887,-7.035565 61.0887,-7.035565 L 191.1179,66.358283 167.12282,68.4958 c 0,0 -31.66724,2.831168 -31.1536,2.644937 0.51363,-0.186224 7.74919,-5.394853 7.74919,-5.394853 z"
       id="path32" /><path
       style="fill:#ff8274;fill-opacity:1;stroke:#d53c6a;stroke-width:0;stroke-dasharray:none;stroke-opacity:1"
       d="m 142.9092,74.603265 c 2.64714,-0.892221 53.61766,-1.568605 53.61766,-1.568605 l -13.06124,7.333788 -20.95264,-0.103771 c 0,0 -27.65381,-0.125222 -27.18108,-0.284552 0.47271,-0.159322 7.5773,-5.37686 7.5773,-5.37686 z"
       id="path33" /><path
       style="fill:#ff8274;fill-opacity:1;stroke:#d53c6a;stroke-width:0;stroke-dasharray:none;stroke-opacity:1"
       d="m 132.9982,86.08705 c 2.51929,-0.696998 48.65208,3.004079 48.65208,3.004079 l -12.85245,6.480418 -18.909,-1.91754 c 0,0 -24.95828,-2.51864 -24.50839,-2.643108 0.44988,-0.124453 7.61776,-4.923849 7.61776,-4.923849 z"
       id="path34" /><path
       style="fill:#ff8274;fill-opacity:1;stroke:#d53c6a;stroke-width:0;stroke-dasharray:none;stroke-opacity:1"
       d="m 122.20134,96.674741 c 2.11993,-0.265657 38.00386,6.235059 38.00386,6.235059 l -11.33654,3.37412 -14.63677,-2.94103 c 0,0 -19.32147,-3.873357 -18.94291,-3.920794 0.37856,-0.04741 6.91236,-2.747355 6.91236,-2.747355 z"
       id="path35" /><path
       style="fill:#ff8274;fill-opacity:1;stroke:#d53c6a;stroke-width:0;stroke-dasharray:none;stroke-opacity:1"
       d="m 114.59829,106.17152 c 1.7252,-0.27846 27.25355,6.31634 27.25355,6.31634 l -9.87831,3.49779 -10.31612,-2.98757 c 0,0 -13.62093,-3.93456 -13.31286,-3.98428 0.30808,-0.0497 6.25374,-2.84228 6.25374,-2.84228 z"
       id="path36" /><path
       style="fill:#7c183c;fill-opacity:1;stroke:#d53c6a;stroke-width:0;stroke-dasharray:none;stroke-opacity:1"
       d="m 83.261743,69.834647 c -1.91781,0.0526 -10.55447,16.822867 -10.55447,16.822867 l 14.48774,2.54007 2.89579,-7.25845 c 0,0 3.84206,-9.568638 3.49959,-9.559248 -0.34247,0.009 -10.32866,-2.545239 -10.32866,-2.545239 z"
       id="path20" /><path
       style="fill:#ff8274;fill-opacity:1;stroke:#d53c6a;stroke-width:0;stroke-dasharray:none;stroke-opacity:1"
       d="m 88.617963,60.806 c -2.07126,0 -19.12884,13.172086 -19.12884,13.172086 l 14.27399,2.339778 6.48386,-5.719448 c 0,0 8.573796,-7.539293 8.203926,-7.539293 -0.36986,0 -9.832936,-2.253123 -9.832936,-2.253123 z"
       id="path6" /><path
       style="fill:#ff8274;fill-opacity:1;stroke:#d53c6a;stroke-width:0;stroke-dasharray:none;stroke-opacity:1"
       d="m 87.653233,78.800544 c -1.90157,0 -10.96816,13.17209 -10.96816,13.17209 l 14.27583,2.33978 3.08969,-5.71945 c 0,0 4.097446,-7.53929 3.75788,-7.53929 -0.33957,0 -10.15524,-2.25313 -10.15524,-2.25313 z"
       id="path11" /><path
       style="fill:#7c183c;fill-opacity:1;stroke:#d53c6a;stroke-width:0;stroke-dasharray:none;stroke-opacity:1"
       d="m 108.20484,71.528085 c 1.59188,0.566431 3.62,15.3813 3.62,15.3813 l -12.938776,-2.100452 -0.171486,-6.18044 c 0,0 -0.246696,-8.154296 0.03753,-8.053148 0.284275,0.101153 9.452712,0.95274 9.452712,0.95274 z"
       id="path54" /><path
       style="fill:#ff8274;fill-opacity:1;stroke:#d53c6a;stroke-width:0;stroke-dasharray:none;stroke-opacity:1"
       d="m 114.02736,80.257747 c 1.26255,0.371068 5.11855,14.174524 5.11855,14.174524 l -9.86286,-0.64821 -1.11186,-5.828273 c 0,0 -1.48203,-7.687556 -1.25658,-7.621306 0.22545,0.06632 7.11275,-0.07677 7.11275,-0.07677 z"
       id="path55" /><path
       style="fill:#ff8274;fill-opacity:1;stroke:#d53c6a;stroke-width:0;stroke-dasharray:none;stroke-opacity:1"
       d="m 108.81458,67.411319 c 1.43069,0.451421 3.25345,9.268689 3.25345,9.268689 l -11.62867,-2.205043 -0.15412,-3.627451 c 0,0 -0.22171,-4.7875 0.0338,-4.706889 0.2555,0.08062 8.49558,1.270694 8.49558,1.270694 z"
       id="path56" /><path
       style="fill:#7c183c;fill-opacity:1;stroke:#d53c6a;stroke-width:0;stroke-dasharray:none;stroke-opacity:1"
       d="m 94.422367,94.22881 c 1.00988,0.4765 3.70841,19.82411 3.70841,19.82411 l -7.9575,-0.54344 -0.72184,-8.18873 c 0,0 -0.96462,-10.80041 -0.78428,-10.71532 0.18038,0.0847 5.75522,-0.37661 5.75522,-0.37661 z"
       id="path21" /><path
       style="fill:#ff8274;fill-opacity:1;stroke:#d53c6a;stroke-width:0;stroke-dasharray:none;stroke-opacity:1"
       d="m 103.686,95.68005 c 0.99272,0.89674 -1.86441,18.64672 -1.86441,18.64672 l -8.801013,-4.33888 1.68283,-7.30771 c 0,0 2.20539,-9.64456 2.38267,-9.48443 0.17725,0.16016 6.599923,2.4843 6.599923,2.4843 z"
       id="path12" /><path
       style="fill:#7c183c;fill-opacity:1;stroke:#d53c6a;stroke-width:0;stroke-dasharray:none;stroke-opacity:1"
       d="m 81.096478,112.44628 c -1.00988,0.4765 -3.70841,19.82411 -3.70841,19.82411 l 7.9575,-0.54344 0.72184,-8.18873 c 0,0 0.96462,-10.80041 0.78428,-10.71532 -0.18038,0.0847 -5.75522,-0.37661 -5.75522,-0.37661 z"
       id="path57" /><path
       style="fill:#ff8274;fill-opacity:1;stroke:#d53c6a;stroke-width:0;stroke-dasharray:none;stroke-opacity:1"
       d="m 71.832845,113.89752 c -0.99272,0.89674 1.86441,18.64672 1.86441,18.64672 l 8.801013,-4.33888 -1.68283,-7.30771 c 0,0 -2.20539,-9.64456 -2.38267,-9.48443 -0.17725,0.16016 -6.599923,2.4843 -6.599923,2.4843 z"
       id="path58" /><path
       style="fill:#7c183c;fill-opacity:1;stroke:#d53c6a;stroke-width:0;stroke-dasharray:none;stroke-opacity:1"
       d="m 71.290066,145.72825 c 1.241737,0.40431 -1.375869,16.11696 -1.375869,16.11696 l -10.838862,-0.58659 1.689739,-6.64246 c 0,0 2.211306,-8.76126 2.433053,-8.68908 0.221697,0.0723 8.091934,-0.19883 8.091934,-0.19883 z"
       id="path62" /><path
       style="fill:#7c183c;fill-opacity:1;stroke:#d53c6a;stroke-width:0;stroke-dasharray:none;stroke-opacity:1"
       d="m 86.383773,136.7501 c 1.241737,0.40431 -1.375869,16.11696 -1.375869,16.11696 l -10.838862,-0.58659 1.689739,-6.64246 c 0,0 2.211306,-8.76126 2.433053,-8.68908 0.221697,0.0723 8.091934,-0.19883 8.091934,-0.19883 z"
       id="path63" /><path
       style="fill:#ff8274;fill-opacity:1;stroke:#d53c6a;stroke-width:0;stroke-dasharray:none;stroke-opacity:1"
       d="m 68.394641,131.2669 c -1.32614,0.31061 -7.4492,17.25547 -7.4492,17.25547 l 9.99135,0.41495 2.06793,-7.21924 c 0,0 2.74311,-9.52033 2.5063,-9.46487 -0.23681,0.0555 -7.11638,-0.98631 -7.11638,-0.98631 z"
       id="path10" /><path
       style="fill:#ff8274;fill-opacity:1;stroke:#d53c6a;stroke-width:0;stroke-dasharray:none;stroke-opacity:1"
       d="m 57.169734,153.5327 c -1.32614,0.31061 -7.4492,17.25547 -7.4492,17.25547 l 9.99135,0.41495 2.06793,-7.21924 c 0,0 2.74311,-9.52033 2.5063,-9.46487 -0.23681,0.0555 -7.11638,-0.98631 -7.11638,-0.98631 z"
       id="path59" /><path
       style="fill:#7c183c;fill-opacity:1;stroke:#d53c6a;stroke-width:0;stroke-dasharray:none;stroke-opacity:1"
       d="m 85.472946,154.70641 c 1.241737,0.40431 -1.375869,16.11696 -1.375869,16.11696 l -10.838862,-0.58659 1.689739,-6.64246 c 0,0 2.211306,-8.76126 2.433053,-8.68908 0.221697,0.0723 8.091934,-0.19883 8.091934,-0.19883 z"
       id="path64" /><path
       style="fill:#ff8274;fill-opacity:1;stroke:#d53c6a;stroke-width:0;stroke-dasharray:none;stroke-opacity:1"
       d="m 89.4259,140.98917 c 1.241737,0.40431 -1.375869,16.11696 -1.375869,16.11696 l -10.838862,-0.58659 1.689739,-6.64246 c 0,0 2.211306,-8.76126 2.433053,-8.68908 0.221697,0.0723 8.091934,-0.19883 8.091934,-0.19883 z"
       id="path60" /><path
       style="fill:#ff8274;fill-opacity:1;stroke:#d53c6a;stroke-width:0;stroke-dasharray:none;stroke-opacity:1"
       d="m 74.152666,159.39066 c 1.241737,0.40431 -1.375869,16.11696 -1.375869,16.11696 l -10.838862,-0.58659 1.689739,-6.64246 c 0,0 2.211306,-8.76126 2.433053,-8.68908 0.221697,0.0723 8.091934,-0.19883 8.091934,-0.19883 z"
       id="path61" /><ellipse
       style="opacity:1;fill:#7c183c;fill-opacity:1;stroke:#7c183c;stroke-width:0;stroke-linecap:round;stroke-linejoin:round;stroke-dasharray:none"
       id="path65"
       cx="115.35556"
       cy="46.463749"
       rx="0.94183809"
       ry="3.4042749" /><ellipse
       style="opacity:1;fill:#7c183c;fill-opacity:1;stroke:#7c183c;stroke-width:0;stroke-linecap:round;stroke-linejoin:round;stroke-dasharray:none"
       id="ellipse65"
       cx="108.23069"
       cy="-0.22591196"
       rx="0.94183809"
       ry="3.4042749"
       transform="rotate(24.884798)" /></g></svg>
